<svg xmlns="http://www.w3.org/2000/svg" width="231.556" height="56.595" viewBox="0 0 231.556 56.595">
  <g id="Group_270" data-name="Group 270" transform="translate(-66.966 -7159.482)">
    <g id="Group_264" data-name="Group 264" transform="translate(66.966 7159.482)">
      <path id="Path_2" data-name="Path 2" d="M599.2,184.4v-25h6.791v18.938h11.076V184.4Z" transform="translate(-599.2 -158.692)" fill="#fff"/>
      <path id="Path_3" data-name="Path 3" d="M736.646,178.683V184.4H717v-25h19.283v5.719H723.791v3.922h9.641V174.4h-9.641v4.267h12.855Z" transform="translate(-695.611 -158.692)" fill="#fff"/>
      <path id="Path_4" data-name="Path 4" d="M842.1,179.046l-1.779,5.356H833l9.46-25h7.5l9.46,25H852.1l-1.8-5.356Zm4.122-12.674-2.324,7.317h4.63Z" transform="translate(-790.549 -158.692)" fill="#fff"/>
      <path id="Path_5" data-name="Path 5" d="M1003.66,159.4a13.028,13.028,0,0,1,9.46,3.613,12.43,12.43,0,0,1-.018,17.794,13.163,13.163,0,0,1-9.46,3.613H994V159.4Zm-2.851,6.083v12.855h2.851a6.326,6.326,0,0,0,4.521-1.834,6.138,6.138,0,0,0,1.906-4.594,6.156,6.156,0,0,0-6.41-6.409h-2.869Z" transform="translate(-922.316 -158.692)" fill="#fff"/>
      <path id="Path_6" data-name="Path 6" d="M1163.128,178.683V184.4H1143.5v-25h19.283v5.719h-12.492v3.922h9.641V174.4h-9.641v4.267h12.837Z" transform="translate(-1044.672 -158.692)" fill="#fff"/>
      <path id="Path_7" data-name="Path 7" d="M1275.1,159.4h11.784a9.062,9.062,0,0,1,6.536,2.469,8.119,8.119,0,0,1,2.578,6.119,8.763,8.763,0,0,1-.436,2.8,7.136,7.136,0,0,1-1.071,2.106,10.554,10.554,0,0,1-1.253,1.38,4.954,4.954,0,0,1-1.053.781l-.472.254,5.175,9.1h-7.135l-4.285-7.862h-3.577V184.4H1275.1v-25Zm13.364,6.791a2.723,2.723,0,0,0-1.943-.708h-4.63v4.993h4.63a2.723,2.723,0,0,0,1.943-.708,2.319,2.319,0,0,0,.744-1.779A2.368,2.368,0,0,0,1288.464,166.191Z" transform="translate(-1152.377 -158.692)" fill="#fff"/>
      <path id="Path_8" data-name="Path 8" d="M1416.739,172.35a5.132,5.132,0,0,0-1.67-.835c-.672-.218-1.434-.454-2.27-.708a18.622,18.622,0,0,1-2.469-.944,11.318,11.318,0,0,1-2.251-1.38,5.988,5.988,0,0,1-1.671-2.161,7.2,7.2,0,0,1-.654-3.141,6.962,6.962,0,0,1,2.651-5.374,10.012,10.012,0,0,1,6.809-2.306,13.246,13.246,0,0,1,3.232.381,11.146,11.146,0,0,1,2.488.89,15.664,15.664,0,0,1,1.707,1.035,4.838,4.838,0,0,1,1.017.908l.327.345-3.94,4.122a6.3,6.3,0,0,0-.508-.527,6.147,6.147,0,0,0-1.416-.872,4.745,4.745,0,0,0-2.179-.563,2.907,2.907,0,0,0-1.925.654,1.925,1.925,0,0,0-.763,1.507,1.45,1.45,0,0,0,.654,1.18,5.515,5.515,0,0,0,1.67.835c.672.218,1.434.472,2.251.708a19.657,19.657,0,0,1,2.469.944,10.965,10.965,0,0,1,2.27,1.38,5.986,5.986,0,0,1,1.67,2.161,7.2,7.2,0,0,1,.654,3.141,7.427,7.427,0,0,1-2.742,5.847,10.732,10.732,0,0,1-7.263,2.379,14.366,14.366,0,0,1-3.559-.436,11.725,11.725,0,0,1-2.833-1.071,18.438,18.438,0,0,1-1.961-1.253,8.341,8.341,0,0,1-1.253-1.089l-.381-.436,3.922-4.1a1.592,1.592,0,0,0,.254.272q.19.163.708.654a10.014,10.014,0,0,0,1.126.835,6.813,6.813,0,0,0,3.268.908,3.4,3.4,0,0,0,2.324-.781,2.406,2.406,0,0,0,.89-1.888A1.51,1.51,0,0,0,1416.739,172.35Z" transform="translate(-1258.609 -155.5)" fill="#fff"/>
      <path id="Path_9" data-name="Path 9" d="M1559.16,184.4h-6.773v-9.641h-9.1V184.4H1536.5v-25h6.791v9.3h9.1v-9.3h6.791v25Z" transform="translate(-1366.314 -158.692)" fill="#fff"/>
      <path id="Path_10" data-name="Path 10" d="M1692.7,159.4h6.791v25H1692.7Z" transform="translate(-1494.153 -158.692)" fill="#fff"/>
      <path id="Path_11" data-name="Path 11" d="M1772.657,159.4a9.291,9.291,0,0,1,6.7,2.488,8.876,8.876,0,0,1-.018,12.528,9.277,9.277,0,0,1-6.682,2.488h-4.467v7.5H1761.4v-25Zm-4.467,6.083v5.356h4.1a2.8,2.8,0,0,0,2.015-.8,2.511,2.511,0,0,0,0-3.74,2.856,2.856,0,0,0-2.015-.8h-4.1Z" transform="translate(-1550.379 -158.692)" fill="#fff"/>
      <path id="Path_14" data-name="Path 14" d="M613.21,349.661a4.669,4.669,0,0,0-1.816-1.325,22.039,22.039,0,0,0-2.488-.853c-.908-.254-1.816-.545-2.724-.853a13,13,0,0,1-2.487-1.144,4.968,4.968,0,0,1-1.816-1.906,5.763,5.763,0,0,1-.708-2.923,5.83,5.83,0,0,1,2.07-4.5,7.909,7.909,0,0,1,5.465-1.852,8.946,8.946,0,0,1,2.433.327,9.481,9.481,0,0,1,1.925.745,13.921,13.921,0,0,1,1.38.872,5.92,5.92,0,0,1,.871.744l.272.327L613.9,339a1.671,1.671,0,0,0-.2-.254,5.7,5.7,0,0,0-.617-.563,8.158,8.158,0,0,0-1.035-.726,6.677,6.677,0,0,0-1.453-.581,7.15,7.15,0,0,0-1.87-.254,5.427,5.427,0,0,0-3.668,1.18,3.644,3.644,0,0,0-1.362,2.851,3.182,3.182,0,0,0,.708,2.07,4.6,4.6,0,0,0,1.834,1.325,22.031,22.031,0,0,0,2.488.853c.908.254,1.816.545,2.705.853a13,13,0,0,1,2.488,1.144,5.091,5.091,0,0,1,1.834,1.888,5.783,5.783,0,0,1,.708,2.941,6.14,6.14,0,0,1-2.088,4.83,8.439,8.439,0,0,1-5.792,1.852,11.392,11.392,0,0,1-2.869-.363,9.388,9.388,0,0,1-2.233-.872,13.375,13.375,0,0,1-1.543-1.017,3.971,3.971,0,0,1-.926-.89l-.309-.381,1.543-1.707a3.574,3.574,0,0,0,.236.309,7.7,7.7,0,0,0,.744.708,8.414,8.414,0,0,0,1.235.872,8.11,8.11,0,0,0,1.8.69,8.264,8.264,0,0,0,2.324.327,5.912,5.912,0,0,0,3.976-1.2,3.976,3.976,0,0,0,1.4-3.159A3.341,3.341,0,0,0,613.21,349.661Z" transform="translate(-600.428 -301.835)" fill="#fff"/>
      <path id="Path_15" data-name="Path 15" d="M756.727,354.826a12.142,12.142,0,1,1,3.523-8.552A11.647,11.647,0,0,1,756.727,354.826ZM741.4,353.192a9.644,9.644,0,0,0,13.581,0,10.05,10.05,0,0,0,0-13.836,9.644,9.644,0,0,0-13.581,0,9.432,9.432,0,0,0-2.76,6.918A9.333,9.333,0,0,0,741.4,353.192Z" transform="translate(-711.243 -301.753)" fill="#fff"/>
      <path id="Path_16" data-name="Path 16" d="M928.2,359.559V336.1h2.524v21.135H942.78v2.342H928.2Z" transform="translate(-868.464 -303.308)" fill="#fff"/>
      <path id="Path_17" data-name="Path 17" d="M1065.508,355.374a7,7,0,0,0,2.07-5.1V336.018h2.524v14.253a9.551,9.551,0,0,1-19.1-.018V336h2.506v14.253a6.972,6.972,0,0,0,2.07,5.1,6.721,6.721,0,0,0,4.975,2.088A6.625,6.625,0,0,0,1065.508,355.374Z" transform="translate(-968.967 -303.227)" fill="#fff"/>
      <path id="Path_18" data-name="Path 18" d="M1223.086,336.1v2.36h-7.39v21.117h-2.506V338.46h-7.39V336.1Z" transform="translate(-1095.66 -303.308)" fill="#fff"/>
      <path id="Path_19" data-name="Path 19" d="M1352.6,336.1h2.524v23.477H1352.6Z" transform="translate(-1215.805 -303.308)" fill="#fff"/>
      <path id="Path_20" data-name="Path 20" d="M1445.927,354.826a12.143,12.143,0,1,1,3.522-8.552A11.648,11.648,0,0,1,1445.927,354.826Zm-15.324-1.634a9.644,9.644,0,0,0,13.581,0,10.05,10.05,0,0,0,0-13.836,9.644,9.644,0,0,0-13.581,0,9.431,9.431,0,0,0-2.76,6.918A9.332,9.332,0,0,0,1430.6,353.192Z" transform="translate(-1275.305 -301.753)" fill="#fff"/>
      <path id="Path_21" data-name="Path 21" d="M1636.5,336.1v23.477h-2.179l-14.4-18.956v18.938H1617.4V336.1h2.179L1634,355.056V336.1Z" transform="translate(-1432.526 -303.308)" fill="#fff"/>
      <path id="Path_22" data-name="Path 22" d="M1791.511,349.661a4.671,4.671,0,0,0-1.816-1.325,22.064,22.064,0,0,0-2.488-.853c-.908-.254-1.816-.545-2.724-.853a13,13,0,0,1-2.488-1.144,4.967,4.967,0,0,1-1.816-1.906,5.763,5.763,0,0,1-.708-2.923,5.831,5.831,0,0,1,2.07-4.5,7.909,7.909,0,0,1,5.465-1.852,8.944,8.944,0,0,1,2.433.327,9.486,9.486,0,0,1,1.925.745,13.933,13.933,0,0,1,1.38.872,5.932,5.932,0,0,1,.871.744l.272.327L1792.2,339a1.691,1.691,0,0,0-.2-.254,5.72,5.72,0,0,0-.617-.563,8.167,8.167,0,0,0-1.035-.726,6.685,6.685,0,0,0-1.452-.581,7.154,7.154,0,0,0-1.87-.254,5.427,5.427,0,0,0-3.668,1.18,3.644,3.644,0,0,0-1.362,2.851,3.181,3.181,0,0,0,.708,2.07,4.6,4.6,0,0,0,1.834,1.325,22.039,22.039,0,0,0,2.488.853c.908.254,1.816.545,2.705.853a13,13,0,0,1,2.488,1.144,5.234,5.234,0,0,1,1.834,1.888,5.782,5.782,0,0,1,.708,2.941,6.14,6.14,0,0,1-2.088,4.83,8.438,8.438,0,0,1-5.792,1.852,11.392,11.392,0,0,1-2.869-.363,9.389,9.389,0,0,1-2.233-.872,13.37,13.37,0,0,1-1.543-1.017,3.97,3.97,0,0,1-.926-.89l-.309-.381,1.543-1.707a3.591,3.591,0,0,0,.236.309,7.692,7.692,0,0,0,.745.708,8.4,8.4,0,0,0,1.234.872,8.111,8.111,0,0,0,1.8.69,8.265,8.265,0,0,0,2.324.327,5.911,5.911,0,0,0,3.976-1.2,3.976,3.976,0,0,0,1.4-3.159A3.342,3.342,0,0,0,1791.511,349.661Z" transform="translate(-1564.784 -301.835)" fill="#fff"/>
    </g>
  </g>
</svg>
