<svg xmlns="http://www.w3.org/2000/svg" width="30" height="30" viewBox="0 0 30 30">
  <path id="Path_374" data-name="Path 374" d="M29.667,3A3.332,3.332,0,0,1,33,6.333V29.667A3.332,3.332,0,0,1,29.667,33H6.333A3.332,3.332,0,0,1,3,29.667V6.333A3.332,3.332,0,0,1,6.333,3H29.667m-.833,25.833V20A5.434,5.434,0,0,0,23.4,14.567h0a4.83,4.83,0,0,0-3.867,2.167v-1.85h-4.65v13.95h4.65V20.617a2.325,2.325,0,1,1,4.65,0v8.217h4.65M9.467,12.267a2.8,2.8,0,0,0,2.8-2.8h0a2.808,2.808,0,1,0-5.617,0h0a2.81,2.81,0,0,0,2.817,2.8m2.317,16.567V14.883H7.167v13.95Z" transform="translate(-3 -3)" fill="#fff"/>
</svg>
