<svg xmlns="http://www.w3.org/2000/svg" width="30" height="21" viewBox="0 0 30 21">
  <path id="Path_375" data-name="Path 375" d="M14,20l7.785-4.5L14,11v9M31.34,8.255a15.508,15.508,0,0,1,.42,2.85c.1,1.2.15,2.235.15,3.135L32,15.5a29.8,29.8,0,0,1-.66,7.245,3.514,3.514,0,0,1-2.6,2.6,21.147,21.147,0,0,1-3.975.42c-1.95.1-3.735.15-5.385.15L17,26c-6.285,0-10.2-.24-11.745-.66a3.514,3.514,0,0,1-2.6-2.6,15.508,15.508,0,0,1-.42-2.85c-.105-1.2-.15-2.235-.15-3.135L2,15.5a29.8,29.8,0,0,1,.66-7.245,3.514,3.514,0,0,1,2.6-2.6A21.148,21.148,0,0,1,9.23,5.24c1.95-.1,3.735-.15,5.385-.15L17,5c6.285,0,10.2.24,11.745.66A3.514,3.514,0,0,1,31.34,8.255Z" transform="translate(-2 -5)" fill="#fff"/>
</svg>
